<svg width="34" height="34" viewBox="0 0 34 34" fill="none" xmlns="http://www.w3.org/2000/svg">
<path fill-rule="evenodd" clip-rule="evenodd" d="M7.14356 4.93955C7.1357 4.84686 7.10967 4.75661 7.06693 4.67398C7.0242 4.59135 6.96561 4.51794 6.89451 4.45795C6.8234 4.39796 6.74118 4.35257 6.65253 4.32436C6.56388 4.29616 6.47054 4.28569 6.37785 4.29355L4.96614 4.41397C4.77906 4.42983 4.60594 4.51932 4.48481 4.66277C4.36368 4.80621 4.30445 4.99188 4.32014 5.17897L4.55318 7.91951C4.45128 7.99057 4.36985 8.08718 4.31708 8.19965C4.26431 8.31211 4.24205 8.43648 4.25252 8.56027C4.263 8.68406 4.30585 8.80292 4.37677 8.90492C4.4477 9.00692 4.5442 9.08847 4.6566 9.14139L4.90451 12.0611C4.91237 12.1538 4.9384 12.2441 4.98114 12.3267C5.02387 12.4093 5.08246 12.4827 5.15356 12.5427C5.22467 12.6027 5.30689 12.6481 5.39554 12.6763C5.48419 12.7045 5.57753 12.715 5.67022 12.7071L7.08193 12.5867C7.26901 12.5709 7.44213 12.4814 7.56326 12.3379C7.68439 12.1945 7.74362 12.0088 7.72793 11.8217L7.46585 8.7433C7.8271 8.67884 8.18126 8.61722 8.53118 8.55914C8.60556 9.72789 8.8216 11.7105 9.21968 13.5777C9.47468 14.7677 9.82318 16.0101 10.3077 16.9876C10.5485 17.4749 10.8616 17.9736 11.276 18.3674C11.6422 18.7159 12.138 19.0241 12.75 19.1048V22.1733C12.673 22.1457 12.5961 22.1181 12.5191 22.0904L12.3611 22.0338C11.6493 21.7788 10.9261 21.5195 10.3736 21.38C10.1058 21.312 9.69993 21.2234 9.30185 21.2588C8.96203 21.2849 8.63782 21.4122 8.3711 21.6243C8.18882 21.7729 8.04215 21.9604 7.94188 22.173C7.8416 22.3857 7.79028 22.6182 7.79168 22.8533C7.79168 23.4363 7.99072 24.9358 8.16001 26.1336C8.26439 26.873 8.373 27.6118 8.48585 28.35L8.50851 28.498L8.51489 28.537L8.51631 28.5469V28.5504L9.91668 28.3337L8.51701 28.5511C8.5713 28.8944 8.74985 29.2057 9.01869 29.4258C9.28753 29.646 9.62792 29.7597 9.97511 29.7453C10.3223 29.7308 10.6521 29.5893 10.9017 29.3476C11.1514 29.1059 11.3035 28.7808 11.3291 28.4343L11.5912 24.7679C12.3781 25.0498 13.2968 25.375 14.2042 25.63C15.1059 25.8836 16.0955 26.0975 17 26.0975C17.9046 26.0975 18.8941 25.8836 19.7958 25.63C20.6954 25.3771 21.6063 25.0548 22.3883 24.775L22.6709 28.442C22.6978 28.7883 22.8509 29.1126 23.1012 29.3533C23.3515 29.594 23.6814 29.7345 24.0284 29.7479C24.3754 29.7614 24.7153 29.647 24.9834 29.4263C25.2516 29.2057 25.4294 28.8942 25.483 28.5511L25.4837 28.5469L25.4851 28.537L25.4915 28.498L25.5142 28.3493C25.6275 27.6114 25.7361 26.8728 25.84 26.1336C26.0093 24.9358 26.2083 23.4363 26.2083 22.854C26.2083 22.4361 26.0454 21.9629 25.6289 21.6243C25.3622 21.4121 25.038 21.2848 24.6982 21.2588C24.3001 21.2234 23.8942 21.312 23.6258 21.3793C23.0733 21.5195 22.3508 21.7788 21.6389 22.0338L21.4809 22.0904L21.25 22.1733V19.1083C22.5888 18.9589 23.3998 17.8737 23.8468 17.0103C24.3653 16.0101 24.7038 14.7457 24.9333 13.5493C25.2932 11.6801 25.4348 9.71726 25.4809 8.56834C25.8266 8.62501 26.1772 8.68522 26.5335 8.74826L26.2714 11.8217C26.2557 12.0089 26.315 12.1947 26.4363 12.3382C26.5576 12.4816 26.7309 12.571 26.9181 12.5867L28.3291 12.7071C28.4218 12.715 28.5151 12.7045 28.6038 12.6763C28.6924 12.6481 28.7747 12.6027 28.8458 12.5427C28.9169 12.4827 28.9755 12.4093 29.0182 12.3267C29.0609 12.2441 29.087 12.1538 29.0948 12.0611L29.3427 9.14139C29.4555 9.08886 29.5524 9.00749 29.6237 8.90552C29.6949 8.80354 29.738 8.68456 29.7486 8.5606C29.7592 8.43664 29.7368 8.31209 29.6838 8.19952C29.6309 8.08696 29.5491 7.99037 29.4468 7.91951L29.6799 5.17897C29.6956 4.99188 29.6364 4.80621 29.5152 4.66277C29.3941 4.51932 29.221 4.42983 29.0339 4.41397L27.6222 4.29355C27.4351 4.27786 27.2494 4.33709 27.106 4.45822C26.9625 4.57935 26.873 4.75248 26.8572 4.93955L26.6539 7.33089C26.2113 7.25303 25.7681 7.17866 25.3243 7.10776C25.2185 6.91576 25.0695 6.75095 24.8891 6.62631C24.7087 6.50168 24.5018 6.42062 24.2848 6.38951C24.0677 6.35841 23.8464 6.37811 23.6383 6.44706C23.4301 6.51602 23.2408 6.63235 23.0853 6.78689C18.7808 6.2436 15.1364 6.2443 10.9069 6.7798C10.7514 6.62763 10.5629 6.51333 10.356 6.44578C10.1492 6.37822 9.92956 6.35922 9.71419 6.39025C9.49881 6.42129 9.29348 6.50151 9.11412 6.62472C8.93476 6.74792 8.78619 6.91078 8.67993 7.10068C8.2436 7.17009 7.79947 7.24518 7.34614 7.32593L7.14356 4.93955ZM11.9907 12.9862C11.6611 11.3921 11.4452 9.77657 11.3447 8.15184C15.2625 7.67514 18.6724 7.67514 22.6603 8.16176C22.6334 9.10526 22.513 11.1325 22.151 13.0138C21.9385 14.1196 21.6623 15.0687 21.3315 15.7069C21.1062 16.1411 20.9518 16.263 20.9008 16.292H13.2055C13.1233 16.2063 12.9965 16.0328 12.8463 15.7296C12.5191 15.0687 12.2287 14.0983 11.9907 12.9862ZM20.1875 11.6878C20.1875 12.5332 19.8517 13.344 19.2539 13.9417C18.6561 14.5395 17.8454 14.8753 17 14.8753C16.1546 14.8753 15.3439 14.5395 14.7461 13.9417C14.1483 13.344 13.8125 12.5332 13.8125 11.6878C13.8125 10.8425 14.1483 10.0317 14.7461 9.43394C15.3439 8.83617 16.1546 8.50034 17 8.50034C17.8454 8.50034 18.6561 8.83617 19.2539 9.43394C19.8517 10.0317 20.1875 10.8425 20.1875 11.6878Z" fill="#757575"/>
</svg>
